# xmcd
#
# Track frame offsets:
#	150
#	17244
#	41052
#	56948
#	68270
#	81432
#	102730
#	114165
#	132689
#	147689
#	165831
#	180474
#	195998
#	214570
#
# Disc length: 3062 seconds
#
# Revision: 2
# Processed by: cddbd v1.5.2PL0 Copyright (c) Steve Scherf et al.
# Submitted via: EasyCDDAExtractor 2010.6.0.0
#
DISCID=c70bf40e
DTITLE=Various Artist - Emozioni In Musica-15-Portami A Ballare
DYEAR=1998
DGENRE=Italiani
TTITLE0=Luca Barbarossa - Portami A Ballare 1992
TTITLE1=Paolo Conte - Boogie 1981
TTITLE2=Alberto Camerini - Rock'n'roll Robot 1981
TTITLE3=Edoardo Vianello - Guarda Come Dondolo 1962
TTITLE4=Gianni Morandi - Balla Linda 1971
TTITLE5=Mia Martini - Minuetto 1973
TTITLE6=Caterina Caselli - La Ragazza Del Piper 1965
TTITLE7=Paolo Conte - Dancing 1982
TTITLE8=Eugenio Bennato - Domani Si Balla 1983
TTITLE9=Righeira - No Tengo Dinero 1983
TTITLE10=Peppino Di Capri - Roberta 1969
TTITLE11=Donatella Rettore - Splendido Splendente 1979
TTITLE12=Paolo Conte - Blue Tangos 1979
TTITLE13=Orchestra Spettacolo Casadei - Simpatia 1974
EXTD=
EXTT0=
EXTT1=
EXTT2=
EXTT3=
EXTT4=
EXTT5=
EXTT6=
EXTT7=
EXTT8=
EXTT9=
EXTT10=
EXTT11=
EXTT12=
EXTT13=
PLAYORDER=
